<svg
    xmlns="http://www.w3.org/2000/svg"
    viewBox="0 0 24 24"
    id="vector">
    <path
        id="path_1"
        d="M 14.046 2.242 L 9.898 2.232 L 9.896 2.232 C 5.522 2.232 2.096 5.659 2.096 10.034 C 2.096 14.132 5.282 17.24 9.561 17.404 L 9.561 21.232 C 9.561 21.34 9.605 21.518 9.681 21.635 C 9.823 21.86 10.065 21.982 10.313 21.982 C 10.451 21.982 10.59 21.944 10.715 21.864 C 10.979 21.696 17.188 17.724 18.803 16.358 C 20.705 14.748 21.843 12.388 21.846 10.046 L 21.846 10.029 C 21.84 5.662 18.416 2.242 14.046 2.241 Z M 17.833 15.214 C 16.699 16.174 12.971 18.619 11.061 19.857 L 11.061 16.67 C 11.061 16.256 10.726 15.92 10.311 15.92 L 9.915 15.92 C 6.255 15.92 3.597 13.444 3.597 10.034 C 3.597 6.5 6.365 3.732 9.897 3.732 L 14.044 3.742 L 14.046 3.742 C 17.578 3.742 20.346 6.508 20.348 10.038 C 20.345 11.948 19.406 13.882 17.834 15.214 Z"/>
</svg>
