<svg
    xmlns="http://www.w3.org/2000/svg"
    viewBox="0 0 24 24"
    id="vector">
    <path
        id="path"
        fill="#71767B"

        d="M 12 21.638 h -0.014 C 9.403 21.59 1.95 14.856 1.95 8.478 c 0 -3.064 2.525 -5.754 5.403 -5.754 c 2.29 0 3.83 1.58 4.646 2.73 c 0.814 -1.148 2.354 -2.73 4.645 -2.73 c 2.88 0 5.404 2.69 5.404 5.755 c 0 6.376 -7.454 13.11 -10.037 13.157 H 12 Z M 7.354 4.225 c -2.08 0 -3.903 1.988 -3.903 4.255 c 0 5.74 7.034 11.596 8.55 11.658 c 1.518 -0.062 8.55 -5.917 8.55 -11.658 c 0 -2.267 -1.823 -4.255 -3.903 -4.255 c -2.528 0 -3.94 2.936 -3.952 2.965 c -0.23 0.562 -1.156 0.562 -1.387 0 c -0.014 -0.03 -1.425 -2.965 -3.954 -2.965 Z"
   />
</svg>
