<svg
    xmlns="http://www.w3.org/2000/svg"
    viewBox="0 0 24 24"
    id="vector">

    <path
        id="path"
        d="m33.6052,16.0598c-0.6318,0.2207 -1.3252,0.2422 -1.8384,0.2109l0.1211,-0.1016c3.124,-1.9063 4.228,-3.7842 4.2241,-4.8125c-0.0015,-0.3613 -0.1401,-0.6435 -0.3901,-0.793c-0.8091,-0.4893 -2.1987,0.6729 -2.5532,1.001c-17.0669,10.4512 -19.1221,24.791 -19.1392,24.9228c-0.0073,0.0449 -0.0654,0.4492 0.2163,0.7607c0.1846,0.2041 0.4536,0.3066 0.8008,0.3066c0.041,0 0.083,-0.001 0.1265,-0.0039c0.4878,-0.0332 0.6318,-0.5488 0.8706,-1.4033c0.5405,-1.9346 1.6616,-5.9453 7.4321,-10.2871c0.4697,0.0537 1.9028,0.0957 4.206,-0.8916c2.9097,-1.2471 2.9434,-3.292 2.9434,-3.3779c0,-0.1162 -0.0581,-0.2256 -0.1553,-0.291c-0.0957,-0.0645 -0.2188,-0.0772 -0.3276,-0.0332c-0.6919,0.2842 -1.3296,0.166 -1.7622,0.0059l0.5156,-0.2588c1.4145,-0.3057 3.1382,-1.3418 5.1245,-3.0801l0.124,-0.1074c0.3457,-0.2969 0.8994,-1.0947 0.6123,-1.5918c-0.1831,-0.3193 -0.5693,-0.3779 -1.1513,-0.1748z"
    />


</svg>
