<svg
    xmlns="http://www.w3.org/2000/svg"
    viewBox="0 0 24 24"
    id="vector">
    <path
        id="path"
        fill="#71767B"

        d="M 23.77 15.67 C 23.478 15.377 23.003 15.377 22.71 15.67 L 20.49 17.89 L 20.49 7.65 C 20.49 5.582 18.807 3.9 16.74 3.9 L 10.89 3.9 C 10.476 3.9 10.14 4.236 10.14 4.65 C 10.14 5.064 10.476 5.4 10.89 5.4 L 16.74 5.4 C 17.98 5.4 18.99 6.41 18.99 7.65 L 18.99 17.89 L 16.77 15.67 C 16.477 15.377 16.002 15.377 15.71 15.67 C 15.418 15.963 15.416 16.438 15.71 16.73 L 19.21 20.23 C 19.355 20.377 19.547 20.45 19.74 20.45 C 19.933 20.45 20.123 20.378 20.27 20.23 L 23.77 16.73 C 24.064 16.438 24.064 15.963 23.77 15.67 Z M 13.11 18.95 L 7.26 18.95 C 6.02 18.95 5.01 17.94 5.01 16.7 L 5.01 6.46 L 7.23 8.68 C 7.378 8.827 7.57 8.9 7.762 8.9 C 7.954 8.9 8.146 8.827 8.292 8.68 C 8.585 8.387 8.585 7.912 8.292 7.62 L 4.792 4.12 C 4.499 3.826 4.024 3.826 3.732 4.12 L 0.232 7.62 C -0.062 7.912 -0.062 8.387 0.232 8.68 C 0.526 8.973 0.999 8.973 1.292 8.68 L 3.512 6.46 L 3.512 16.7 C 3.512 18.768 5.195 20.45 7.262 20.45 L 13.112 20.45 C 13.526 20.45 13.862 20.114 13.862 19.7 C 13.862 19.286 13.525 18.95 13.112 18.95 Z"
 />
</svg>
