<svg
    xmlns="http://www.w3.org/2000/svg"
    viewBox="0 0 24 24"
    id="vector">
    <path
        id="path"
        d="M 17.53 7.47 l -5 -5 c -0.293 -0.293 -0.768 -0.293 -1.06 0 l -5 5 c -0.294 0.293 -0.294 0.768 0 1.06 s 0.767 0.294 1.06 0 l 3.72 -3.72 V 15 c 0 0.414 0.336 0.75 0.75 0.75 s 0.75 -0.336 0.75 -0.75 V 4.81 l 3.72 3.72 c 0.146 0.147 0.338 0.22 0.53 0.22 s 0.384 -0.072 0.53 -0.22 c 0.293 -0.293 0.293 -0.767 0 -1.06 Z M 19.708 21.944 H 4.292 C 3.028 21.944 2 20.916 2 19.652 V 14 c 0 -0.414 0.336 -0.75 0.75 -0.75 s 0.75 0.336 0.75 0.75 v 5.652 c 0 0.437 0.355 0.792 0.792 0.792 h 15.416 c 0.437 0 0.792 -0.355 0.792 -0.792 V 14 c 0 -0.414 0.336 -0.75 0.75 -0.75 s 0.75 0.336 0.75 0.75 v 5.652 c 0 1.264 -1.028 2.292 -2.292 2.292 Z" />
</svg>
