<svg
    xmlns="http://www.w3.org/2000/svg"
    viewBox="0 0 24 24"
    id="vector">
    <path
        id="path"
        d="M 4.7 5.846 c 0.384 -2.878 2.15 -4.6 4.72 -4.6 s 4.334 1.718 4.72 4.6 C 14.7 10 13.07 11.6 9.42 11.6 S 4.145 10 4.7 5.846 Z M 3.217 21.94 h 9.573 c -2.09 -2.456 -3.57 -5.994 -1.8 -8.738 c -4.475 -0.665 -8.87 1.732 -9.916 5.948 c -0.326 1.17 0.36 2.384 1.53 2.71 c 0.2 0.055 0.406 0.082 0.613 0.08 Z m 8.976 -6.066 c 0 3.54 4.18 7.1 5.34 7.126 c 1.16 -0.02 5.34 -3.586 5.34 -7.126 c 0.016 -1.517 -1.16 -2.78 -2.673 -2.874 c -1.337 0 -2.05 1.01 -2.668 1.88 c -0.617 -0.87 -1.332 -1.88 -2.666 -1.88 c -1.513 0.095 -2.688 1.358 -2.673 2.874 Z"/></svg>
